<svg width="32" height="32" viewBox="0 0 32 32" fill="none" xmlns="http://www.w3.org/2000/svg" aria-hidden="true"><path d="M26.231 0H5.769C2.58287 0 0 2.58287 0 5.769V26.231C0 29.4171 2.58287 32 5.769 32H26.231C29.4171 32 32 29.4171 32 26.231V5.769C32 2.58287 29.4171 0 26.231 0Z" fill="white"/><path d="M25.0097 24.2964H21.1449C20.977 24.2995 20.8119 24.2522 20.6708 24.1606C20.5296 24.0691 20.4187 23.9373 20.3522 23.7821L16.1565 13.9093C16.1455 13.8708 16.1226 13.837 16.091 13.8127C16.0594 13.7884 16.0209 13.775 15.9812 13.7745C15.9415 13.774 15.9026 13.7864 15.8704 13.8098C15.8382 13.8332 15.8144 13.8665 15.8024 13.9046L13.1877 20.1731C13.1735 20.207 13.1679 20.2439 13.1713 20.2806C13.1747 20.3172 13.1871 20.3524 13.2073 20.3831C13.2275 20.4137 13.255 20.4389 13.2872 20.4563C13.3194 20.4737 13.3554 20.4828 13.3919 20.4828H16.2661C16.3532 20.4828 16.4383 20.5086 16.5109 20.5569C16.5835 20.6053 16.6403 20.6742 16.6743 20.7548L17.9326 23.573C17.966 23.6521 17.9793 23.7382 17.9715 23.8238C17.9637 23.9093 17.935 23.9916 17.8879 24.0632C17.8408 24.1349 17.7768 24.1936 17.7016 24.2343C17.6264 24.275 17.5424 24.2963 17.457 24.2964H6.99371C6.91501 24.2959 6.83765 24.2758 6.76853 24.238C6.6994 24.2001 6.64065 24.1456 6.59753 24.0794C6.5544 24.0131 6.52823 23.9372 6.52136 23.8583C6.51448 23.7794 6.52711 23.7 6.55811 23.6272L13.2136 7.67679C13.2816 7.50797 13.3986 7.36372 13.5494 7.26286C13.7001 7.162 13.8775 7.10922 14.0585 7.11141H17.8972C18.0783 7.10899 18.2559 7.16168 18.4067 7.26257C18.5574 7.36346 18.6744 7.50784 18.7423 7.67679L25.4438 23.6272C25.4748 23.6999 25.4875 23.7791 25.4807 23.8579C25.4739 23.9367 25.4479 24.0126 25.4049 24.0788C25.362 24.1451 25.3034 24.1996 25.2345 24.2375C25.1655 24.2755 25.0883 24.2957 25.0097 24.2964Z" fill="#EB1000"/></svg>