<svg width="517" height="517" viewBox="0 0 517 517" fill="none" xmlns="http://www.w3.org/2000/svg">
<g id="Frame" clip-path="url(#clip0_58_10525)">
<g id="Vector">
<path d="M172.332 258.5V344.668H258.5C210.91 344.668 172.332 306.09 172.332 258.5Z" fill="#393939"/>
<path d="M258.5 172.332H172.332V258.5C172.332 210.91 210.91 172.332 258.5 172.332Z" fill="#393939"/>
<path d="M258.5 344.668H344.668V258.5C344.668 306.09 306.09 344.668 258.5 344.668Z" fill="#393939"/>
<path d="M344.668 258.5V172.332H258.5C306.09 172.332 344.668 210.91 344.668 258.5Z" fill="#393939"/>
<path d="M172.332 258.5C172.332 306.09 210.91 344.668 258.5 344.668V258.5H172.332Z" fill="#EAEAEA"/>
<path d="M258.5 344.668C306.09 344.668 344.668 306.09 344.668 258.5H258.5V344.668Z" fill="#393939"/>
<path d="M258.5 172.332V258.5H344.668C344.668 210.91 306.09 172.332 258.5 172.332Z" fill="#393939"/>
<path d="M258.5 172.332C210.91 172.332 172.332 210.91 172.332 258.5H258.5V172.332Z" fill="#EAEAEA"/>
<path d="M172.332 258.5V172.332H86.1641C133.754 172.332 172.332 210.91 172.332 258.5Z" fill="#393939"/>
<path d="M172.332 258.5C172.332 306.09 133.754 344.668 86.1641 344.668H172.332V258.5Z" fill="#393939"/>
<path d="M0 258.5V344.668H86.1677C38.5779 344.668 0 306.09 0 258.5Z" fill="#393939"/>
<path d="M86.168 172.332V258.5H172.336C172.336 210.91 133.758 172.332 86.168 172.332Z" fill="#EAEAEA"/>
<path d="M86.168 172.332C38.5781 172.332 0 210.91 0 258.5L86.168 258.5V172.332Z" fill="#393939"/>
<path d="M86.1677 344.668L86.168 258.5L0 258.5C0 306.09 38.5779 344.668 86.1677 344.668Z" fill="#393939"/>
<path d="M172.332 258.5H86.1641V344.668C133.754 344.668 172.332 306.09 172.332 258.5Z" fill="#EAEAEA"/>
<path d="M517 258.5V172.332H430.832C478.422 172.332 517 210.91 517 258.5Z" fill="#393939"/>
<path d="M430.832 344.668H517V258.5C517 306.09 478.422 344.668 430.832 344.668Z" fill="#393939"/>
<path d="M344.668 258.5C344.668 210.91 383.246 172.332 430.836 172.332H344.668V258.5Z" fill="#393939"/>
<path d="M344.668 258.5V344.668H430.836C383.246 344.668 344.668 306.09 344.668 258.5Z" fill="#393939"/>
<path d="M430.832 172.332V258.5H517C517 210.91 478.422 172.332 430.832 172.332Z" fill="#EAEAEA"/>
<path d="M344.668 258.5L430.836 258.5V172.332C383.246 172.332 344.668 210.91 344.668 258.5Z" fill="#393939"/>
<path d="M430.832 344.668V258.5L344.664 258.5C344.664 306.09 383.242 344.668 430.832 344.668Z" fill="#393939"/>
<path d="M430.832 344.668C478.422 344.668 517 306.09 517 258.5H430.832V344.668Z" fill="#EAEAEA"/>
<path d="M258.5 517H344.668V430.832C344.668 478.422 306.09 517 258.5 517Z" fill="#393939"/>
<path d="M258.5 344.668C306.09 344.668 344.668 383.246 344.668 430.836V344.668H258.5Z" fill="#393939"/>
<path d="M172.332 430.832V517H258.5C210.91 517 172.332 478.422 172.332 430.832Z" fill="#EAEAEA"/>
<path d="M258.5 344.668H172.332V430.836C172.332 383.246 210.91 344.668 258.5 344.668Z" fill="#393939"/>
<path d="M344.668 430.832H258.5V517C306.09 517 344.668 478.422 344.668 430.832Z" fill="#EAEAEA"/>
<path d="M172.332 430.832C172.332 478.422 210.91 517 258.5 517V430.832H172.332Z" fill="#393939"/>
<path d="M172.332 430.832H258.5L258.5 344.664C210.91 344.664 172.332 383.242 172.332 430.832Z" fill="#393939"/>
<path d="M258.5 344.668L258.5 430.836H344.668C344.668 383.246 306.09 344.668 258.5 344.668Z" fill="#EAEAEA"/>
<path d="M344.668 430.832C344.668 383.242 383.246 344.664 430.836 344.664H344.668L344.668 430.832Z" fill="#393939"/>
<path d="M344.668 430.832V517H430.836C383.246 517 344.668 478.422 344.668 430.832Z" fill="#393939"/>
<path d="M517 430.832V344.664H430.832C478.422 344.664 517 383.242 517 430.832Z" fill="#EAEAEA"/>
<path d="M430.832 517H517V430.832C517 478.422 478.422 517 430.832 517Z" fill="#EAEAEA"/>
<path d="M344.668 430.832L430.836 430.832V344.664C383.246 344.664 344.668 383.242 344.668 430.832Z" fill="#EAEAEA"/>
<path d="M430.832 344.668V430.836H517C517 383.246 478.422 344.668 430.832 344.668Z" fill="#393939"/>
<path d="M430.832 517C478.422 517 517 478.422 517 430.832L430.832 430.832V517Z" fill="#393939"/>
<path d="M344.668 430.832C344.668 478.422 383.246 517 430.836 517V430.832L344.668 430.832Z" fill="#EAEAEA"/>
<path d="M86.1677 344.668H0V430.836C0 383.246 38.5779 344.668 86.1677 344.668Z" fill="#393939"/>
<path d="M0 430.832V517H86.1677C38.5779 517 0 478.422 0 430.832Z" fill="#393939"/>
<path d="M86.1677 344.668C133.758 344.668 172.336 383.246 172.336 430.836V344.668L86.1677 344.668Z" fill="#393939"/>
<path d="M86.1677 517H172.336V430.832C172.336 478.422 133.758 517 86.1677 517Z" fill="#EAEAEA"/>
<path d="M86.1677 344.668C38.5779 344.668 0 383.245 0 430.832L86.1677 430.832V344.664V344.668Z" fill="#EAEAEA"/>
<path d="M86.1677 344.668L86.168 430.836H172.336C172.336 383.246 133.758 344.668 86.1677 344.668Z" fill="#393939"/>
<path d="M172.332 430.832H86.1641V517C133.754 517 172.332 478.422 172.332 430.832Z" fill="#393939"/>
<path d="M0 430.832C0 478.422 38.5779 517 86.1677 517V430.832L0 430.832Z" fill="#EAEAEA"/>
<path d="M258.5 172.332H344.668V86.1641C344.668 133.754 306.09 172.332 258.5 172.332Z" fill="#393939"/>
<path d="M344.668 86.1677V0H258.5C306.09 0 344.668 38.5779 344.668 86.1677Z" fill="#393939"/>
<path d="M258.5 172.332C210.91 172.332 172.332 133.754 172.332 86.1641V172.332H258.5Z" fill="#393939"/>
<path d="M258.5 0H172.332V86.1677C172.332 38.5779 210.91 0 258.5 0Z" fill="#EAEAEA"/>
<path d="M344.668 86.1677L258.5 86.168V172.336C306.09 172.336 344.668 133.758 344.668 86.1677Z" fill="#EAEAEA"/>
<path d="M258.5 172.332V86.1641H172.332C172.332 133.754 210.91 172.332 258.5 172.332Z" fill="#393939"/>
<path d="M172.332 86.1677L258.5 86.168V0C210.91 0 172.332 38.5779 172.332 86.1677Z" fill="#393939"/>
<path d="M344.668 86.1677C344.668 38.5779 306.09 0 258.5 0V86.168L344.668 86.1677Z" fill="#EAEAEA"/>
<path d="M430.832 0H344.664V86.1677C344.667 38.5779 383.245 0 430.832 0Z" fill="#393939"/>
<path d="M344.668 86.1677L344.668 172.336H430.836C383.246 172.336 344.668 133.758 344.668 86.1677Z" fill="#393939"/>
<path d="M430.832 0C478.422 0 517 38.5779 517 86.1677V0H430.832Z" fill="#EAEAEA"/>
<path d="M430.832 172.332H517V86.1641C517 133.754 478.422 172.332 430.832 172.332Z" fill="#EAEAEA"/>
<path d="M344.668 86.1677H430.836V0C383.246 0 344.668 38.5779 344.668 86.1677Z" fill="#EAEAEA"/>
<path d="M430.832 0L430.832 86.1677H517C517 38.5779 478.422 0 430.832 0Z" fill="#EAEAEA"/>
<path d="M430.832 172.332C478.422 172.332 517 133.754 517 86.1641H430.832V172.332Z" fill="#393939"/>
<path d="M430.832 172.332V86.1641H344.664C344.664 133.754 383.242 172.332 430.832 172.332Z" fill="#EAEAEA"/>
<path d="M172.332 86.1677V0H86.1641C133.754 0 172.332 38.5779 172.332 86.1677Z" fill="#EAEAEA"/>
<path d="M172.332 86.1677C172.332 133.758 133.754 172.336 86.1641 172.336H172.332L172.332 86.1677Z" fill="#393939"/>
<path d="M172.332 86.1677C172.332 38.5779 133.755 0 86.168 0V86.1677H172.336H172.332Z" fill="#393939"/>
<path d="M172.332 86.1677L86.1641 86.168V172.336C133.754 172.336 172.332 133.758 172.332 86.1677Z" fill="#393939"/>
</g>
</g>
<defs>
<clipPath id="clip0_58_10525">
<rect width="517" height="517" fill="white"/>
</clipPath>
</defs>
</svg>
